<svg width="170" height="58" viewBox="0 0 170 58" fill="none" xmlns="http://www.w3.org/2000/svg">
<path d="M54.4095 42.1299L29.9038 40.066C29.5676 40.0385 29.2309 40.1148 28.9394 40.2846C28.6479 40.4545 28.4155 40.7097 28.2736 41.0158C28.1317 41.3219 28.0872 41.6641 28.1459 41.9964C28.2047 42.3286 28.364 42.6348 28.6023 42.8736L39.5351 53.8064C39.9101 54.1827 40.3569 54.4799 40.849 54.6802C41.3379 54.8845 41.8624 54.9898 42.3922 54.9901H60.6816C60.9734 54.9911 61.2601 54.9141 61.5121 54.767C61.7728 54.6227 61.9876 54.4079 62.1319 54.1472C62.2783 53.8949 62.3554 53.6084 62.3554 53.3167C62.3554 53.025 62.2783 52.7385 62.1319 52.4862L57.0622 43.7661C56.785 43.3019 56.403 42.9092 55.9466 42.6195C55.481 42.3352 54.9538 42.1673 54.4095 42.1299Z" fill="#AA0A5E"/>
<path d="M21.3325 54.9903H1.66099C1.36785 54.9945 1.07898 54.9196 0.824842 54.7734C0.570701 54.6273 0.36068 54.4153 0.216912 54.1598C0.0738939 53.9064 -0.000838489 53.6202 7.09676e-06 53.3293C0.00244831 53.0363 0.0838088 52.7494 0.235523 52.4988L7.45583 39.9794C7.64645 39.6488 7.9459 39.3946 8.30305 39.2601C8.66021 39.1256 9.05296 39.1192 9.41432 39.2419C9.64844 39.3252 9.86044 39.4608 10.0341 39.6386L22.5286 52.2075C22.7605 52.4393 22.9181 52.7349 22.9811 53.0566C23.0417 53.3796 23.0072 53.7134 22.8819 54.0172C22.7524 54.3189 22.5357 54.5751 22.2597 54.7529C21.9836 54.9306 21.6608 55.0219 21.3325 55.0151V54.9903Z" fill="#FFCB0B"/>
<path d="M21.6919 21.423L22.5968 32.6346C22.6244 32.9716 22.5477 33.309 22.3771 33.6009C22.2065 33.8929 21.9502 34.1253 21.6431 34.2667C21.3359 34.4081 20.9927 34.4516 20.66 34.3914C20.3272 34.3312 20.0211 34.1701 19.783 33.9299L15.1471 29.2755C14.8932 29.0208 14.7299 28.6899 14.6823 28.3334C14.6315 27.976 14.7013 27.6118 14.8806 27.2984L18.5992 20.7226C18.775 20.4176 19.0414 20.1749 19.3615 20.0285C19.6847 19.8847 20.0457 19.8499 20.3904 19.9293C20.734 20.0053 21.0442 20.1896 21.2752 20.4552C21.5062 20.7208 21.6457 21.0535 21.6733 21.4044L21.6919 21.423Z" fill="#42C1C7"/>
<path d="M29.724 1.57859L29.662 1.68396C29.516 1.95994 29.4495 2.27105 29.4699 2.58262L31.2611 28.613C31.3083 29.1008 31.5281 29.5557 31.8808 29.8959C32.2237 30.2391 32.6797 30.4462 33.1638 30.4785L46.9846 31.4391C47.2862 31.4622 47.5884 31.4022 47.8583 31.2657C48.1282 31.1291 48.3555 30.9211 48.5154 30.6644C48.6774 30.4085 48.7634 30.1119 48.7634 29.8091C48.7641 29.506 48.6827 29.2083 48.5279 28.9477L32.6246 1.49182C32.4795 1.23174 32.2649 1.01715 32.0048 0.872055C31.7491 0.73066 31.4602 0.660057 31.1681 0.667529C30.876 0.674509 30.5913 0.760155 30.3438 0.915438C30.0777 1.07226 29.8625 1.30252 29.724 1.57859Z" fill="#EF5454"/>
<path d="M100 0H105.386V32.8571H100V0ZM110.676 21.4007L119.524 32.8571H112.607L104.272 21.8253L111.812 11.732H118.603L110.676 21.4007Z" fill="#261D24"/>
<path d="M121.951 5.71484H127.183L127.265 14.1351C127.265 14.1351 128.199 11.5783 129.724 11.5783H132.84V16.6845H127.265V25.3222C127.265 27.1967 127.392 28.0365 129.784 28.0365H132.773V32.8577H127.967C124.933 32.8577 121.936 30.1809 121.936 26.1095L121.951 5.71484Z" fill="#261D24"/>
<path d="M138.571 11.9043H143.809V32.8567H138.571V11.9043Z" fill="#261D24"/>
<path d="M141.304 4.76562C141.635 4.76558 141.964 4.83107 142.27 4.95828C142.576 5.08549 142.854 5.27187 143.086 5.50657C143.319 5.74128 143.503 6.01962 143.626 6.32539C143.75 6.63116 143.811 6.95825 143.805 7.28761C143.825 7.62947 143.775 7.97168 143.658 8.2941C143.542 8.61651 143.362 8.9126 143.129 9.16495C142.896 9.41729 142.615 9.6208 142.301 9.76347C141.987 9.90614 141.648 9.9851 141.304 9.9957C140.94 10.0162 140.576 9.96014 140.236 9.83128C139.895 9.70243 139.586 9.50365 139.329 9.24798C139.071 8.99231 138.871 8.68551 138.741 8.34768C138.611 8.00984 138.555 7.6486 138.575 7.28761C138.581 6.9421 138.657 6.60126 138.798 6.28552C138.94 5.96979 139.144 5.68565 139.399 5.45015C139.653 5.21465 139.953 5.03263 140.281 4.91501C140.608 4.79738 140.956 4.74657 141.304 4.76562Z" fill="#261D24"/>
<path d="M147.142 11.9053H153.122L158.556 25.8981L164.02 11.9053H169.999L161.03 32.8577H156.112L147.142 11.9053Z" fill="#261D24"/>
<path fill-rule="evenodd" clip-rule="evenodd" d="M81.6667 33.3337C84.4934 33.3337 87.0854 32.3489 89.1045 30.7104C90.0557 32.0097 91.5911 32.8543 93.324 32.8575V32.8578H95.7049V27.1436H93.3338V10.4766L88.0957 10.5069V12.3669C86.2523 11.1722 84.0424 10.4766 81.6667 10.4766C75.2233 10.4766 70 15.5933 70 21.9051C70 28.217 75.2233 33.3337 81.6667 33.3337ZM81.7143 28.5717C85.3962 28.5717 88.3809 25.5869 88.3809 21.905C88.3809 18.2231 85.3962 15.2383 81.7143 15.2383C78.0324 15.2383 75.0476 18.2231 75.0476 21.905C75.0476 25.5869 78.0324 28.5717 81.7143 28.5717Z" fill="#261D24"/>
<path d="M107.474 41.2547V51.5703H112.432V50.4751H108.82V41.2547H107.474ZM117.31 44.4663C118.701 44.4663 119.885 45.3395 119.871 46.9231H114.75C114.898 45.3395 115.993 44.4663 117.31 44.4663ZM121.099 49.0691H119.649C119.353 49.9423 118.583 50.5639 117.369 50.5639C115.993 50.5639 114.839 49.6611 114.735 48.0183H121.217C121.247 47.7371 121.262 47.5003 121.262 47.2043C121.262 44.9843 119.723 43.3267 117.369 43.3267C115.001 43.3267 113.359 44.9399 113.359 47.5003C113.359 50.0755 115.061 51.7035 117.369 51.7035C119.382 51.7035 120.685 50.5491 121.099 49.0691ZM122.536 47.4855C122.536 50.0015 124.209 51.7035 126.37 51.7035C127.864 51.7035 128.915 50.9339 129.404 50.0607V51.5703H130.765V43.4599H129.404V44.9399C128.93 44.0963 127.894 43.3267 126.384 43.3267C124.209 43.3267 122.536 44.9547 122.536 47.4855ZM129.404 47.5003C129.404 49.4095 128.131 50.5195 126.651 50.5195C125.171 50.5195 123.913 49.3947 123.913 47.4855C123.913 45.5763 125.171 44.4959 126.651 44.4959C128.131 44.4959 129.404 45.6207 129.404 47.5003ZM134.388 47.1599C134.388 45.2803 135.365 44.7031 136.652 44.7031H137.008V43.3119C135.72 43.3119 134.847 43.8743 134.388 44.7771V43.4599H133.041V51.5703H134.388V47.1599ZM144.497 51.5703H145.829V46.7899C145.829 44.4663 144.393 43.3119 142.514 43.3119C141.419 43.3119 140.442 43.7707 139.909 44.6143V43.4599H138.562V51.5703H139.909V47.0859C139.909 45.3395 140.856 44.4811 142.233 44.4811C143.594 44.4811 144.497 45.3247 144.497 46.9823V51.5703ZM148.029 51.5703H149.376V43.4599H148.029V51.5703ZM148.725 42.1427C149.213 42.1427 149.613 41.7431 149.613 41.2251C149.613 40.7071 149.213 40.3075 148.725 40.3075C148.207 40.3075 147.807 40.7071 147.807 41.2251C147.807 41.7431 148.207 42.1427 148.725 42.1427ZM157.606 51.5703H158.938V46.7899C158.938 44.4663 157.502 43.3119 155.623 43.3119C154.528 43.3119 153.551 43.7707 153.018 44.6143V43.4599H151.671V51.5703H153.018V47.0859C153.018 45.3395 153.965 44.4811 155.342 44.4811C156.703 44.4811 157.606 45.3247 157.606 46.9823V51.5703ZM160.635 47.4855C160.635 50.0015 162.307 51.7035 164.483 51.7035C165.963 51.7035 167.014 50.9191 167.502 50.0459V51.7479C167.502 53.4795 166.422 54.3971 164.986 54.3971C163.654 54.3971 162.692 53.7311 162.396 52.7543H161.064C161.33 54.4859 162.855 55.5663 164.986 55.5663C167.369 55.5663 168.864 53.9827 168.864 51.7479V43.4599H167.502V44.9399C167.028 44.0667 165.963 43.3267 164.483 43.3267C162.307 43.3267 160.635 44.9547 160.635 47.4855ZM167.502 47.5003C167.502 49.4095 166.229 50.5195 164.749 50.5195C163.269 50.5195 162.011 49.3947 162.011 47.4855C162.011 45.5763 163.269 44.4959 164.749 44.4959C166.229 44.4959 167.502 45.6207 167.502 47.5003Z" fill="#AA0A5E"/>
</svg>
